<?xml version="1.0" encoding="UTF-8" standalone="no" ?>
<svg width="256px" height="400px" viewBox="0 0 256 318" version="1.1" xmlns="http://www.w3.org/2000/svg" xmlns:xlink="http://www.w3.org/1999/xlink" preserveAspectRatio="xMidYMid">
    <g>
        <g>
            <path d="M225.627557,317.252791 L30.2571363,317.252791 C13.5457249,317.252791 0,303.708212 0,286.998111 L0,30.2559898 C0,13.5457249 13.5457249,0 30.2571363,0 L225.627557,0 C242.336512,0 255.887314,13.5457249 255.887314,30.2559898 L255.887314,286.998111 C255.887314,303.708212 242.336512,317.252791 225.627557,317.252791 L225.627557,317.252791 L225.627557,317.252791 Z" fill="#6762A6"></path>
            <path d="M160.360824,273.600778 L160.360824,147.609797 C160.360824,147.609797 168.555281,117.460105 59.4165681,159.943821 C59.2169111,160.482518 59.2169111,43.4397441 59.2169111,43.4397441 L94.8765809,43.2209239 L94.8765809,118.211399 C94.8765809,118.211399 194.722969,78.8856711 194.722969,148.034825 L194.722969,273.601106 L160.360824,273.601106 L160.360824,273.600778 L160.360824,273.600778 Z M180.680804,88.6064645 L142.856026,88.6064645 C156.470869,71.9602406 168.795885,43.4394165 168.795885,43.4394165 L207.905249,43.4394165 C207.905249,43.4395803 201.210431,62.0255406 180.680804,88.6064645 L180.680804,88.6064645 L180.680804,88.6064645 Z M59.8643634,273.381958 L59.8643634,201.633986 L95.7415432,237.511166 L59.8643634,273.381958 L59.8643634,273.381958 Z" fill="#FFFFFF"></path>
        </g>
    </g>
</svg>
