<?xml version="1.0" encoding="utf-8"?>
<!-- Generator: Adobe Illustrator 19.0.0, SVG Export Plug-In . SVG Version: 6.00 Build 0)  -->
<svg version="1.1" id="Layer_1" xmlns="http://www.w3.org/2000/svg" xmlns:xlink="http://www.w3.org/1999/xlink" x="0px" y="0px"
	 viewBox="0 0 500 500" style="enable-background:new 0 0 500 500;" xml:space="preserve">
<style type="text/css">
	.st0-s3{fill:#8C3123;}
	.st1-s3{fill:#E05243;}
	.st2-s3{fill:#5E1F18;}
	.st3-s3{fill:#F2B0A9;}
</style>
<g id="XMLID_1_">
	<polyline id="XMLID_2_" class="st0-s3" points="123.3,130.8 99,143 99,356.5 123.3,368.6 123.5,368.4 123.5,131 123.3,130.8 	"/>
	<polyline id="XMLID_3_" class="st1-s3" points="253.5,337.6 123.3,368.6 123.3,130.8 253.5,161.1 253.5,337.6 	"/>
	<polyline id="XMLID_4_" class="st0-s3" points="194.8,289.1 250,296.1 250.3,295.3 250.7,204.8 250,204.1 194.8,211 194.8,289.1 	"/>
	<polyline id="XMLID_5_" class="st0-s3" points="250,338 376.6,368.7 376.8,368.4 376.8,131 376.6,130.8 250,161.5 250,338 	"/>
	<polyline id="XMLID_6_" class="st1-s3" points="305.2,289.1 250,296.1 250,204.1 305.2,211 305.2,289.1 	"/>
	<polyline id="XMLID_7_" class="st2-s3" points="305.2,173.2 250,183.3 194.8,173.2 249.9,158.8 305.2,173.2 	"/>
	<polyline id="XMLID_8_" class="st3-s3" points="305.2,326.8 250,316.6 194.8,326.8 249.9,342.2 305.2,326.8 	"/>
	<polyline id="XMLID_9_" class="st0-s3" points="194.8,173.2 250,159.6 250.4,159.4 250.4,67.9 250,67.5 194.8,95.1 194.8,173.2 	"/>
	<polyline id="XMLID_10_" class="st1-s3" points="305.2,173.2 250,159.6 250,67.5 305.2,95.1 305.2,173.2 	"/>
	<polyline id="XMLID_11_" class="st0-s3" points="250,432.5 194.8,404.9 194.8,326.8 250,340.4 250.8,341.4 250.6,430.9 250,432.5 	"/>
	<polyline id="XMLID_12_" class="st1-s3" points="250,432.5 305.2,404.9 305.2,326.8 250,340.4 250,432.5 	"/>
	<polyline id="XMLID_13_" class="st1-s3" points="376.6,130.8 401,143 401,356.5 376.6,368.7 376.6,130.8 	"/>
</g>
</svg>
