<?xml version="1.0" standalone="no"?>
<!DOCTYPE svg PUBLIC "-//W3C//DTD SVG 20010904//EN"
 "http://www.w3.org/TR/2001/REC-SVG-20010904/DTD/svg10.dtd">
<svg version="1.0" xmlns="http://www.w3.org/2000/svg"
 width="3066.000000pt" height="3066.000000pt" viewBox="0 0 3066.000000 3066.000000"
 preserveAspectRatio="xMidYMid meet">
<metadata>
Created by potrace 1.11, written by Peter Selinger 2001-2013
</metadata>
<g transform="translate(0.000000,3066.000000) scale(0.100000,-0.100000)"
fill="#000000" stroke="none">
<path d="M25375 20619 c-2084 -4170 -3792 -7582 -3795 -7584 -3 -2 -941 1868
-2085 4156 -1144 2287 -2082 4159 -2085 4159 -3 -1 -941 -1873 -2084 -4161
l-2079 -4160 -31 59 c-17 32 -953 1904 -2081 4160 -1127 2256 -2053 4101
-2057 4099 -7 -2 -9064 -18112 -9070 -18135 -2 -9 249 -140 740 -387 l743
-374 46 92 c72 145 105 210 114 232 5 11 13 27 19 35 5 8 95 187 199 397 104
209 194 389 200 400 6 10 43 83 82 163 40 80 85 172 102 205 16 33 33 69 38
80 5 11 13 27 19 35 5 8 56 110 114 225 57 116 156 316 221 445 64 129 121
244 126 255 5 11 13 27 19 35 5 8 203 403 440 877 236 475 434 871 440 880 12
23 613 1227 697 1398 35 72 68 139 74 149 14 23 237 472 250 501 5 11 13 27
19 35 5 8 131 259 279 557 149 298 275 550 280 560 6 10 43 83 82 163 40 80
85 172 102 205 16 33 33 69 38 80 5 11 13 27 19 35 5 8 92 182 194 385 470
946 587 1181 596 1195 8 14 32 62 127 255 19 39 38 77 43 85 10 16 348 694
457 915 35 72 68 139 74 149 6 11 65 128 130 260 66 133 124 248 129 256 5 8
16 29 23 45 45 99 1792 3585 1796 3585 4 -1 937 -1865 2075 -4143 1138 -2278
2075 -4150 2081 -4160 11 -15 313 583 2090 4138 1143 2286 2081 4158 2085
4160 3 2 942 -1868 2086 -4155 1143 -2287 2082 -4156 2086 -4152 5 5 3728
7449 9043 18082 l33 66 -106 53 c-59 29 -114 56 -122 60 -9 5 -153 77 -320
160 -168 84 -312 156 -320 160 -8 4 -116 59 -240 120 -124 62 -259 130 -302
152 -42 21 -78 39 -80 39 -1 0 -1708 -3412 -3793 -7581z"/>
</g>
</svg>
